<svg width="171" height="52" viewBox="0 0 171 52" fill="none" xmlns="http://www.w3.org/2000/svg">
<g clip-path="url(#clip0_1070_119)">
<path d="M15.3097 28.4414H21.7625C20.9401 34.2563 17.1443 37.3874 10.9445 37.3874C4.36515 37.3874 0 33.17 0 26.78C0 20.4539 4.36515 16.1726 10.9445 16.1726C17.1443 16.1726 20.9401 19.3676 21.7625 25.1825H15.3097C14.7403 22.946 13.2852 21.7319 11.0078 21.7319C8.2242 21.7319 6.26304 23.7128 6.26304 26.78C6.26304 29.8472 8.2242 31.8281 11.0078 31.892C13.2852 31.9559 14.7403 30.6779 15.3097 28.4414Z" fill="#E10600"/>
<path d="M23.2176 14.5112H29.2276V23.9045H29.2908C30.303 22.6904 32.0111 22.1792 33.656 22.1792C36.8824 22.1792 39.0966 24.6074 39.0966 28.1858V37.004H33.0866V29.5277C33.0866 28.1219 32.3907 27.2912 31.1254 27.2912C29.8602 27.2912 29.1643 28.058 29.1643 29.4638V36.9401H23.1543L23.2176 14.5112Z" fill="#E10600"/>
<path d="M56.1778 29.5917C56.1778 24.6714 53.2677 21.7959 48.2699 21.7959C43.4619 21.7959 40.2988 24.927 40.2988 29.5917C40.2988 34.2564 43.5252 37.3875 48.2699 37.3875C52.5718 37.3875 55.735 35.2788 56.1778 32.0838H50.4209C50.0413 32.7228 49.2189 33.1062 48.3965 33.1062C47.2577 33.1062 46.372 32.2116 46.1822 30.9336H56.1778V29.5917ZM46.3088 28.122C46.4353 26.7801 47.321 25.9494 48.4597 25.9494C49.6617 25.9494 50.5474 26.7801 50.7372 28.122H46.3088Z" fill="#E10600"/>
<path d="M60.0996 27.6107H57.1895V22.6904H60.0996V20.9651C60.0996 16.6199 62.7567 14 67.1851 14C68.2605 14 69.3993 14.1278 70.4748 14.5112V19.3037C69.9054 19.112 69.336 18.9842 68.7666 18.9842C67.1851 18.9842 66.1729 19.8788 66.1729 21.1568V22.6904H70.4748V27.6107H66.1729V36.8762H60.0996V27.6107Z" fill="#E10600"/>
<path d="M70.4746 32.2753H75.5989C76.0417 33.106 76.8009 33.4894 78.3825 33.4894C79.2681 33.4894 79.8375 33.2338 79.8375 32.7865C79.8375 30.8056 71.297 33.3616 71.297 26.9716C71.297 24.0961 74.1438 22.1152 78.3192 22.1152C82.6843 22.1152 85.3414 23.8405 85.9108 27.1633H80.7232C80.3436 26.3965 79.5845 25.9492 78.3825 25.9492C77.56 25.9492 76.9274 26.2048 76.9274 26.716C76.9274 28.5691 86.0373 26.6521 86.0373 32.7226C86.0373 35.8537 83.317 37.579 78.3825 37.5151C73.7643 37.5151 70.8542 35.4703 70.4746 32.2753Z" fill="#E10600"/>
<path d="M103.12 16.3643H93.8828V36.8762H100.652V32.2115H103.12C108.75 32.2115 112.103 29.1443 112.103 24.224C112.103 19.3037 108.75 16.3643 103.12 16.3643ZM102.614 27.0995H100.652V21.4763H102.614C104.195 21.4763 105.207 22.5626 105.207 24.2879C105.207 25.9493 104.195 27.0995 102.614 27.0995Z" fill="#E10600"/>
<path d="M113.494 36.8763H120.01V25.4382V14.064H113.494V36.8763Z" fill="#E10600"/>
<path d="M133.042 23.5851H132.979C131.967 22.1793 130.132 21.7959 128.74 21.7959C124.692 21.7959 121.908 24.927 121.908 29.5917C121.908 34.2564 124.628 37.3875 128.74 37.3875C130.195 37.3875 131.904 36.9402 132.979 35.5983H133.042V36.8124H139.242V22.371H133.042V23.5851ZM130.322 32.8506C128.93 32.8506 128.044 31.5087 128.044 29.5917C128.044 27.6747 128.93 26.3328 130.322 26.3328C131.84 26.3328 132.726 27.6108 132.726 29.5917C132.726 31.6365 131.84 32.8506 130.322 32.8506Z" fill="#E10600"/>
<path d="M149.68 17.7063H143.164V22.3071H140.57V27.3552H143.164V31.4448C143.164 35.0232 145.885 37.3875 149.997 37.3875C151.388 37.3875 152.843 37.1958 153.603 36.8763V31.8921C152.97 31.956 152.274 32.0838 151.641 32.0838C150.25 32.0838 149.68 31.5087 149.68 30.2307V27.4191H153.603V22.371H149.68V17.7063Z" fill="#E10600"/>
<path d="M171.001 29.5917C171.001 24.6714 168.028 21.7959 163.03 21.7959C158.222 21.7959 155.059 24.927 155.059 29.5917C155.059 34.2564 158.285 37.3875 163.03 37.3875C167.332 37.3875 170.495 35.2788 170.938 32.0838H165.181C164.801 32.7228 163.979 33.1062 163.156 33.1062C162.018 33.1062 161.132 32.2116 160.942 30.9336H171.001V29.5917ZM161.069 28.0581C161.195 26.7162 162.081 25.8855 163.22 25.8855C164.422 25.8855 165.307 26.7162 165.497 28.0581H161.069Z" fill="#E10600"/>
</g>
<defs>
<clipPath id="clip0_1070_119">
<rect width="171" height="52" fill="white"/>
</clipPath>
</defs>
</svg>
