<svg xmlns="http://www.w3.org/2000/svg" width="auto" name="Every Plate Logo" viewBox="0 0 720 131"><path fill="#DA3920" d="M0 12.42h58.298v21.32H24.665v21.318h33.002v21.158H24.664v22.276h33.624v21.32H0V12.42ZM64.667 12.42H89.65l11.315 63.342h.32l12.39-63.342h23.882l-25.456 107.41H88.851L64.667 12.42ZM145.839 12.42h58.298v21.32h-33.624v21.318h33.002v21.158h-33.002v22.276h33.624v21.32h-58.298V12.42ZM310.615 79.872c-12.257-3.788-20.416-13.59-20.416-27.949V12.42h24.664v36.643c0 6.005 1.724 11.214 8.018 11.214 6.293 0 8.017-5.21 8.017-11.214V12.42h24.664v39.484c0 14.85-7.696 24.492-20.274 27.95v39.957h-24.664V79.853l-.01.02ZM442.134 12.42h24.664v86.091h34.887v21.32h-59.551V12.42ZM583.912 33.74V12.42h68.981v21.32h-22.149v86.09H606.07V33.74h-22.158ZM661.711 12.42H720v21.32h-33.623v21.318h32.998v21.158h-32.998v22.276H720v21.32h-58.289V12.42ZM395.942 12.42h-29.705v107.41h24.665V80.185h4.87c22.62 0 37.233-11.375 37.233-34.115 0-22.74-14.132-33.65-37.063-33.65Zm3.683 47.544c-7.377 0-13.359-6.014-13.359-13.43 0-7.415 5.982-13.43 13.36-13.43 7.376 0 13.359 6.015 13.359 13.43 0 7.416-5.983 13.43-13.36 13.43ZM267.25 72.76c9.11-5.683 14.451-15.315 14.451-28.432 0-21.954-14.14-31.899-36.77-31.899h-30.167v107.41h24.825V78.614h5.341l14.453 41.227h26.388L267.23 72.769h.01l.01-.01ZM248.17 59.964c-7.376 0-13.359-6.014-13.359-13.43 0-7.415 5.982-13.43 13.36-13.43 7.376 0 13.359 6.015 13.359 13.43 0 7.416-5.983 13.43-13.36 13.43ZM542.77 11.16c-18.701 0-32.682 10.74-32.682 29.701v78.97h24.674V79.095a33.037 33.037 0 0 0 8.018 1.004c2.722 0 5.397-.35 8.017-1.004v40.734h24.664V40.861c0-19.122-12.888-29.7-32.682-29.7h-.009Zm0 48.804c-7.377 0-13.36-6.014-13.36-13.43 0-7.415 5.983-13.43 13.36-13.43s13.359 6.015 13.359 13.43c0 7.416-5.982 13.43-13.359 13.43Z"/></svg>