<svg width="101" height="20" viewBox="0 0 101 20" fill="none" xmlns="http://www.w3.org/2000/svg">
<g clip-path="url(#clip0_136_50065)">
<path d="M71.858 9.024V10.978C71.858 11.762 71.306 12.196 70.6 12.196C69.894 12.196 69.342 11.76 69.342 10.978V9.024C69.342 8.24 69.894 7.806 70.6 7.806C71.306 7.806 71.858 8.24 71.858 9.024ZM80.884 7.902H79.298V9.344H80.884C81.378 9.344 81.696 9.092 81.696 8.628C81.696 8.152 81.376 7.902 80.884 7.902ZM100.324 0V20H59.344V13.386H60.63V10.61H63.454V9.324H60.63V7.902H63.454V6.616H59.344V0H100.324ZM73.154 9.024C73.154 7.524 72.226 6.518 70.6 6.518C68.974 6.518 68.046 7.524 68.046 9.024V10.978C68.046 12.478 68.974 13.484 70.6 13.484C72.226 13.484 73.154 12.478 73.154 10.978V9.024ZM83.214 13.386L81.53 10.532C82.478 10.31 82.99 9.614 82.99 8.608C82.99 7.39 82.226 6.616 80.852 6.616H77.998V13.386H79.294V10.6H80.088L81.722 13.386H83.214ZM93.71 6.614H92.414L90.74 10.096L89.066 6.614H87.77V13.384H89.056V9.128L90.226 11.566H91.252L92.422 9.128V13.384H93.708L93.71 6.614ZM0 13.386H1.296V10.61H4.122V9.324H1.296V7.902H4.122V6.616L0 6.612V13.386ZM10.39 6.612L7.972 13.386H9.326L9.81 12.022H12.21L12.694 13.386H14.048L11.63 6.612H10.39ZM10.256 10.792L11.01 8.596L11.764 10.792H10.256ZM20.888 7.802C21.546 7.802 22.068 8.18 22.136 8.876H23.442C23.394 7.454 22.464 6.516 20.888 6.516C19.262 6.516 18.334 7.512 18.334 9.022V10.976C18.334 12.486 19.262 13.482 20.888 13.482C22.464 13.482 23.394 12.544 23.442 11.122H22.136C22.068 11.818 21.546 12.196 20.888 12.196C20.182 12.196 19.63 11.76 19.63 10.976V9.022C19.63 8.238 20.182 7.802 20.888 7.802ZM27.612 7.9H29.498V13.386H30.834V7.9H32.72V6.614H27.612V7.9ZM39.472 6.516C37.846 6.516 36.918 7.512 36.918 9.022V10.976C36.918 12.486 37.846 13.482 39.472 13.482C41.098 13.482 42.026 12.486 42.026 10.976V9.022C42.028 7.512 41.098 6.516 39.472 6.516ZM40.73 10.976C40.73 11.76 40.178 12.196 39.472 12.196C38.766 12.196 38.214 11.76 38.214 10.976V9.022C38.214 8.238 38.766 7.802 39.472 7.802C40.178 7.802 40.73 8.238 40.73 9.022V10.976ZM51.944 8.606C51.944 7.368 51.2 6.612 49.806 6.612H46.952V13.384H48.248V10.598H49.042L50.678 13.384H52.168L50.484 10.53C51.44 10.308 51.944 9.612 51.944 8.606ZM49.834 9.342H48.248V7.9H49.834C50.328 7.9 50.646 8.152 50.646 8.626C50.648 9.09 50.328 9.342 49.834 9.342Z" fill="#141414"/>
</g>
<defs>
<clipPath id="clip0_136_50065">
<rect width="100.324" height="20" fill="white"/>
</clipPath>
</defs>
</svg>
