<svg width="63" height="48" viewBox="0 0 63 48" fill="none" xmlns="http://www.w3.org/2000/svg">
<path d="M55.3357 25.7487C57.397 25.5896 59.4481 23.2488 60.1889 21.0024C60.5432 19.9028 60.3804 18.9046 60.1889 18.5829C60.0007 18.2962 59.7397 18.3312 59.5973 18.7018C58.6277 21.5233 56.9393 24.3641 55.4239 24.6456C54.1678 24.8904 54.0067 23.3117 54.7322 20.9517C56.0883 16.6354 58.8633 9.82447 60.2346 6.28439C61.4382 3.19709 61.3416 1.53106 60.6618 0.340549C60.4126 -0.134958 60.0736 -0.127967 59.7685 0.459424C58.6734 2.59571 56.5003 8.19341 54.9865 12.4153C54.8458 10.9905 53.9525 9.89964 52.4252 10.1024C50.6843 10.3349 48.1568 12.209 45.887 16.4151C45.209 16.9011 43.5596 18.1808 43.046 17.9885C43.0646 17.6899 43.0646 17.3903 43.046 17.0917C42.8849 14.2946 41.778 14.2159 40.7304 13.1076C39.8557 12.1705 39.1845 11.9468 38.0775 12.1723C36.3824 12.5219 34.8568 14.0061 33.7075 15.9554C32.7701 17.5287 31.514 18.9797 30.0545 19.4098C30.029 19.2175 30.0426 19.0217 30.0189 18.8294C29.8578 16.041 28.7136 15.9589 27.7033 14.8453C26.8235 13.8698 26.1523 13.646 25.0504 13.91C22.8468 14.4012 20.8448 16.8924 19.7209 19.6947C18.9937 21.5461 18.6293 23.4778 18.8242 25.1736C17.4466 27.3832 15.6422 29.2762 13.5235 30.7345C14.6203 26.8029 18.2004 16.0165 19.0293 13.5656C19.7243 11.5604 19.2192 9.94859 18.5733 9.33323C18.2699 9.02205 17.8953 9.10946 17.6715 9.68287C17.3816 10.3821 17.0596 11.1304 16.7087 11.9555L16.5765 12.3733C16.4105 11.725 16.1018 11.125 15.6743 10.6198C15.2468 10.1147 14.7121 9.71807 14.1117 9.46084C10.335 7.88747 5.99712 12.5726 3.5646 16.6948C1.98134 19.3748 -2.36837 28.649 3.22557 31.3534C6.23952 32.8114 9.45011 30.4321 11.8318 27.3326L11.113 29.6052C10.852 30.537 10.6333 31.5037 10.3672 32.4023C6.86333 34.348 2.8323 36.9808 1.17107 40.5087C-2.58026 48.4262 3.61206 49.0625 6.69382 46.977C9.42807 45.1291 11.6572 37.8095 13.059 32.3918C15.7577 30.9601 18.0699 29.2451 19.331 27.0249C19.5592 27.5353 19.8719 28.0009 20.2549 28.4007C21.9941 30.1996 23.8282 30.0318 25.1098 29.3937C27.7491 28.1053 29.5697 23.9201 29.9375 20.5146C30.7317 20.4187 31.4953 20.1423 32.1734 19.7052C31.4953 22.4114 31.7021 24.9987 33.2735 26.663C34.9687 28.4636 36.8825 28.2871 38.164 27.649C40.766 26.3641 42.5883 22.1807 42.9612 18.8136C43.769 18.7223 44.5341 18.3927 45.1649 17.8644C43.0443 22.6719 44.3546 27.0966 47.6906 26.6508C49.44 26.4183 50.9368 24.7732 51.9285 23.0792C52.1539 24.8834 53.3032 25.9008 55.3289 25.7487H55.3357ZM5.00885 45.1868C1.74741 46.4438 2.49327 39.5821 9.92474 34.0561C8.22961 40.2132 5.81235 44.8739 5.00885 45.1868ZM12.92 21.8275C10.24 28.4077 6.71585 30.4915 4.73085 29.5475C2.65431 28.4986 3.50018 23.7331 5.94457 19.0846C8.8263 13.6163 12.7471 10.3297 14.5118 11.5936C16.5985 13.0848 14.327 18.3993 12.9285 21.8275H12.92ZM26.5099 23.6631C25.1098 27.3605 23.0383 28.9706 21.9348 28.2923C20.7855 27.593 20.8974 23.9411 22.1365 20.8485C22.7722 19.2752 23.6503 17.8364 24.5555 16.8959C24.7572 18.5095 26.1675 19.8049 27.4372 20.2979C27.2982 21.2926 26.949 22.4307 26.4981 23.6631H26.5099ZM27.6152 19.2594C26.7981 18.7839 26.376 17.8259 26.3896 16.7298C26.3896 15.5585 27.1846 15.2194 27.488 16.4274C27.6826 17.3576 27.7256 18.3147 27.6152 19.2594ZM39.5303 21.9254C38.1386 25.6228 36.0417 27.3081 34.9636 26.5529C33.9279 25.8326 33.9262 22.2034 35.1653 19.1108C35.801 17.5375 36.6791 16.0987 37.5843 15.1582C37.7538 16.541 38.8183 17.7647 39.7523 18.2647C39.9613 18.438 40.21 18.553 40.4745 18.5986C40.2637 19.7345 39.9475 20.8468 39.5303 21.9202V21.9254ZM40.6474 17.5497C40.2629 17.242 39.9542 16.8451 39.7463 16.3913C39.5384 15.9375 39.4371 15.4396 39.4506 14.9379C39.4964 13.8016 40.2117 13.4712 40.5151 14.6792C40.7104 15.6222 40.7551 16.5918 40.6474 17.5497ZM52.4726 18.8993C51.1623 22.6264 49.4366 25.1596 47.9415 25.3187C46.4854 25.4742 46.4769 22.0793 48.0721 18.5112C49.696 14.8593 52.1099 12.0796 53.2676 11.9642C54.3525 11.8576 54.0983 14.3505 52.4726 18.8993Z" fill="#244C5C"/>
<path d="M20.0512 36.5418C21.4073 36.367 22.1447 36.9177 22.5939 37.3862L24.0551 35.5768C23.2075 34.7937 22.0819 34.0647 20.1003 34.3304C16.6253 34.7937 13.9402 38.1082 14.4437 42.1186C14.8013 44.9803 16.9067 46.8089 19.941 46.4051C21.6361 46.1778 22.9448 45.2688 23.9144 44.0992L22.5769 42.5836C21.8005 43.5503 20.9954 44.0573 20.0495 44.1832C18.2052 44.4297 17.0694 43.2863 16.8457 41.4945C16.5795 39.3722 17.7966 36.8425 20.0529 36.5418" fill="#244C5C"/>
<path d="M34.0227 37.4596L30.0594 37.9876L30.29 33.1626L27.8812 33.4825L27.354 45.2233L29.7628 44.9017L29.9493 40.2095L33.9142 39.6798L33.7277 44.3737L36.1212 44.0538L36.6484 32.313L34.2549 32.6329L34.0227 37.4596Z" fill="#244C5C"/>
<path d="M45.8789 30.8935C42.3192 31.3673 39.568 34.5805 40.0782 38.652C40.4613 41.7026 42.7904 43.3581 45.7637 42.9613C49.1946 42.5032 51.9373 39.1642 51.4356 35.1556C51.0966 32.4354 49.0183 30.474 45.8789 30.8935ZM45.7552 40.7883C43.9109 41.0348 42.7209 39.9456 42.4819 38.0436C42.2107 35.8898 43.4159 33.3794 45.7637 33.0665C47.73 32.8043 48.8149 33.9406 49.0471 35.7622C49.3455 38.152 47.8606 40.5086 45.7552 40.7883Z" fill="#244C5C"/>
<path d="M62.8214 31.7798C62.6248 30.2065 61.4212 29.009 59.165 29.3096L55.3831 29.8149L54.856 41.5574L57.219 41.2428L57.4309 36.8723L58.8327 36.6852C61.3178 36.3531 63.1435 34.3514 62.8214 31.7903V31.7798ZM58.6446 34.6871L57.5021 34.8392L57.6428 31.5176L58.7242 31.3743C59.838 31.2257 60.4194 31.6277 60.5143 32.4232C60.6669 33.6469 59.804 34.5472 58.6497 34.6958" fill="#244C5C"/>
</svg>
