<svg width="86" height="48" viewBox="0 0 86 48" fill="none" xmlns="http://www.w3.org/2000/svg">
<g clip-path="url(#clip0_1070_154)">
<path d="M43 0C54.6938 0.0141758 71.53 1.19125 77.4053 2.21191C82.2802 3.03412 85.9859 5.88341 86 11.8516V36.1484C86 42.1165 82.2947 44.9658 77.4199 45.7881C70.7135 46.9506 54.7077 47.9858 43.0137 48H42.9863C31.2923 47.9858 15.3992 46.9222 8.58008 45.7881C3.70537 44.9658 0 42.1165 0 36.1484V11.8516C0 5.88341 3.70567 3.03412 8.56641 2.21191C13.6387 1.19125 31.2778 0.0141839 42.9717 0H43ZM33.8984 25.6016C31.3907 25.6016 29.418 27.6295 29.418 30.1953C29.4181 32.761 31.3907 34.7734 33.8984 34.7734C35.2932 34.7734 36.5475 34.1788 37.3506 33.1299C37.3757 33.0889 37.3873 33.0403 37.3848 32.9922C37.3822 32.9443 37.3651 32.8984 37.3359 32.8604L36.3213 32.0518C36.2811 32.0358 36.2385 32.0261 36.1953 32.0234C36.152 32.0274 36.1112 32.0477 36.082 32.0801C35.8266 32.4139 35.4976 32.6837 35.1211 32.8682C34.7447 33.0525 34.3308 33.1471 33.9121 33.1436C32.3201 33.1434 31.0801 31.8534 31.0801 30.1807C31.0802 28.5081 32.3202 27.2042 33.9121 27.2041C34.323 27.2095 34.7287 27.3034 35.1006 27.4795C35.4722 27.6556 35.8024 27.9096 36.0684 28.2246C36.0811 28.2414 36.0969 28.256 36.1152 28.2666C36.1335 28.2771 36.1539 28.2835 36.1748 28.2861C36.1957 28.2888 36.2169 28.2869 36.2373 28.2812C36.2577 28.2754 36.2774 28.2662 36.2939 28.2529L37.3076 27.459C37.3399 27.4296 37.3602 27.3892 37.3643 27.3457C37.3653 27.2995 37.3506 27.2541 37.3223 27.2178C36.9112 26.7043 36.3891 26.2917 35.7959 26.0117C35.2027 25.7318 34.5536 25.5915 33.8984 25.6016ZM39.5049 25.7148C39.4826 25.7141 39.4603 25.7184 39.4395 25.7266C39.4187 25.7349 39.3997 25.7477 39.3838 25.7637C39.3681 25.7795 39.3559 25.7985 39.3477 25.8193C39.3395 25.8403 39.3352 25.8633 39.3359 25.8857V34.4902C39.3351 34.5128 39.3395 34.5357 39.3477 34.5566C39.3559 34.5774 39.3681 34.5964 39.3838 34.6123C39.3997 34.6282 39.4187 34.6411 39.4395 34.6494C39.4603 34.6577 39.4826 34.6608 39.5049 34.6602H40.8154C40.8377 34.6608 40.8601 34.6576 40.8809 34.6494C40.9017 34.6411 40.9207 34.6282 40.9365 34.6123C40.9523 34.5964 40.9645 34.5774 40.9727 34.5566C40.9808 34.5357 40.9852 34.5128 40.9844 34.4902V30.9893H44.5068V34.4902C44.506 34.5128 44.5094 34.5357 44.5176 34.5566C44.5259 34.5775 44.539 34.5964 44.5547 34.6123C44.5706 34.6281 44.5896 34.6411 44.6104 34.6494C44.6312 34.6576 44.6535 34.6609 44.6758 34.6602H46.0146C46.0369 34.6608 46.0594 34.6577 46.0801 34.6494C46.1009 34.6411 46.1199 34.6282 46.1357 34.6123C46.1515 34.5964 46.1637 34.5774 46.1719 34.5566C46.18 34.5357 46.1844 34.5128 46.1836 34.4902V25.8857C46.1844 25.8633 46.1801 25.8403 46.1719 25.8193C46.1637 25.7985 46.1515 25.7795 46.1357 25.7637C46.1199 25.7477 46.1009 25.7349 46.0801 25.7266C46.0594 25.7184 46.0369 25.7141 46.0146 25.7148H44.6758C44.6535 25.714 44.6312 25.7184 44.6104 25.7266C44.5896 25.7349 44.5706 25.7477 44.5547 25.7637C44.5389 25.7795 44.5259 25.7984 44.5176 25.8193C44.5094 25.8403 44.506 25.8633 44.5068 25.8857V29.4434H40.9844V25.8857C40.9852 25.8633 40.9808 25.8403 40.9727 25.8193C40.9645 25.7985 40.9523 25.7795 40.9365 25.7637C40.9207 25.7477 40.9017 25.7349 40.8809 25.7266C40.8601 25.7184 40.8378 25.7141 40.8154 25.7148H39.5049ZM49.0869 25.7148C49.0646 25.7141 49.0423 25.7184 49.0215 25.7266C49.0007 25.7349 48.9816 25.7477 48.9658 25.7637C48.9501 25.7795 48.9379 25.7985 48.9297 25.8193C48.9214 25.8403 48.9172 25.8633 48.918 25.8857V34.4902C48.9172 34.5128 48.9214 34.5357 48.9297 34.5566C48.9379 34.5774 48.9501 34.5964 48.9658 34.6123C48.9816 34.6282 49.0007 34.6411 49.0215 34.6494C49.0423 34.6576 49.0647 34.6608 49.0869 34.6602H54.3564C54.3787 34.6609 54.4011 34.6576 54.4219 34.6494C54.4427 34.6411 54.4617 34.6281 54.4775 34.6123C54.4933 34.5964 54.5065 34.5775 54.5146 34.5566C54.5228 34.5357 54.5261 34.5128 54.5254 34.4902V33.2715C54.5261 33.2491 54.5228 33.226 54.5146 33.2051C54.5065 33.1841 54.4933 33.1653 54.4775 33.1494C54.4616 33.1334 54.4428 33.1206 54.4219 33.1123C54.401 33.1042 54.3788 33.0998 54.3564 33.1006H50.5664V31.0312H53.751C53.7733 31.032 53.7956 31.0277 53.8164 31.0195C53.8371 31.0112 53.8563 30.9993 53.8721 30.9834C53.8879 30.9675 53.8999 30.9477 53.9082 30.9268C53.9163 30.9059 53.9207 30.8837 53.9199 30.8613V29.6562C53.9207 29.6338 53.9164 29.6108 53.9082 29.5898C53.8999 29.569 53.8877 29.55 53.8721 29.5342C53.8562 29.5182 53.8372 29.5054 53.8164 29.4971C53.7956 29.4889 53.7733 29.4856 53.751 29.4863H50.5664V27.2744H54.2295C54.2517 27.2751 54.2741 27.2719 54.2949 27.2637C54.3157 27.2554 54.3347 27.2424 54.3506 27.2266C54.3663 27.2106 54.3795 27.1918 54.3877 27.1709C54.3959 27.1499 54.3991 27.1271 54.3984 27.1045V25.8857C54.3991 25.8633 54.3959 25.8403 54.3877 25.8193C54.3795 25.7984 54.3664 25.7796 54.3506 25.7637C54.3347 25.7477 54.3158 25.7348 54.2949 25.7266C54.2741 25.7185 54.2518 25.714 54.2295 25.7148H49.0869ZM57.1025 25.7148C57.0802 25.7141 57.0578 25.7184 57.0371 25.7266C57.0163 25.7349 56.9973 25.7477 56.9814 25.7637C56.9657 25.7795 56.9535 25.7985 56.9453 25.8193C56.9371 25.8403 56.9328 25.8633 56.9336 25.8857V34.4902C56.9328 34.5128 56.9371 34.5357 56.9453 34.5566C56.9535 34.5774 56.9657 34.5964 56.9814 34.6123C56.9973 34.6282 57.0162 34.6411 57.0371 34.6494C57.0578 34.6577 57.0802 34.6608 57.1025 34.6602H58.4834C58.5057 34.6609 58.5281 34.6576 58.5488 34.6494C58.5696 34.6411 58.5887 34.6281 58.6045 34.6123C58.6203 34.5964 58.6334 34.5775 58.6416 34.5566C58.6498 34.5357 58.6531 34.5128 58.6523 34.4902V31.0459H61.4561C61.4783 31.0467 61.5008 31.0424 61.5215 31.0342C61.5423 31.026 61.5614 31.013 61.5771 30.9971C61.593 30.9812 61.6061 30.9624 61.6143 30.9414C61.6224 30.9204 61.6258 30.8975 61.625 30.875V29.6699C61.6257 29.6476 61.6224 29.6253 61.6143 29.6045C61.6061 29.5835 61.593 29.5638 61.5771 29.5479C61.5614 29.5322 61.5422 29.5199 61.5215 29.5117C61.5008 29.5036 61.4783 29.4992 61.4561 29.5H58.6523V27.2891H62.2451C62.2674 27.2899 62.2898 27.2856 62.3105 27.2773C62.3313 27.2691 62.3505 27.2569 62.3662 27.2412C62.3821 27.2252 62.3951 27.2056 62.4033 27.1846C62.4114 27.1638 62.4148 27.1415 62.4141 27.1191V25.8857C62.4149 25.8633 62.4115 25.8403 62.4033 25.8193C62.3951 25.7984 62.3821 25.7796 62.3662 25.7637C62.3504 25.7477 62.3314 25.7348 62.3105 25.7266C62.2898 25.7185 62.2674 25.714 62.2451 25.7148H57.1025ZM10.1445 14.6582C9.59153 14.6582 9.06096 14.879 8.66992 15.2725C8.27894 15.6659 8.05866 16.1994 8.05859 16.7559V31.2441C8.05866 31.8006 8.27894 32.3341 8.66992 32.7275C9.06096 33.1209 9.59153 33.3418 10.1445 33.3418C10.6973 33.3417 11.2273 33.1207 11.6182 32.7275C12.0092 32.3341 12.2294 31.8006 12.2295 31.2441V16.7559C12.2294 16.1994 12.0092 15.6659 11.6182 15.2725C11.2273 14.8792 10.6973 14.6583 10.1445 14.6582ZM29.1211 13.1982C26.5993 13.1984 24.627 15.2252 24.627 17.791C24.627 20.3568 26.5995 22.3696 29.1074 22.3838C31.8125 22.3838 33.3623 20.6825 33.3623 17.7197C33.3614 17.675 33.3429 17.6323 33.3115 17.6006C33.28 17.5691 33.2378 17.5506 33.1934 17.5498H28.8398C28.8175 17.549 28.7952 17.5533 28.7744 17.5615C28.7538 17.5698 28.7345 17.582 28.7188 17.5977C28.7029 17.6136 28.6898 17.6333 28.6816 17.6543C28.6735 17.6751 28.6702 17.6974 28.6709 17.7197V18.1875C28.6713 18.4092 28.7583 18.6225 28.9141 18.7793C29.0699 18.9361 29.2817 19.024 29.502 19.0244H31.5029C31.362 20.0734 30.4033 20.7959 29.1211 20.7959C27.5292 20.7958 26.2754 19.4774 26.2754 17.8047C26.2756 16.1323 27.5294 14.8146 29.1211 14.8145C29.8251 14.8147 30.5024 15.0881 31.0098 15.5791C31.0409 15.6067 31.0806 15.6221 31.1221 15.6221C31.1636 15.6221 31.2033 15.6067 31.2344 15.5791L32.207 14.7148C32.2372 14.6784 32.2571 14.6339 32.2637 14.5869C32.2687 14.564 32.2671 14.5399 32.2598 14.5176C32.2523 14.4951 32.2386 14.4753 32.2207 14.46C31.3932 13.6447 30.2793 13.1911 29.1211 13.1982ZM35.7021 13.3115C35.6798 13.3107 35.6576 13.315 35.6367 13.3232C35.6159 13.3315 35.5969 13.3436 35.5811 13.3594C35.5653 13.3754 35.5531 13.395 35.5449 13.416C35.5368 13.4369 35.5324 13.459 35.5332 13.4814V22.0859C35.5324 22.1085 35.5367 22.1314 35.5449 22.1523C35.5531 22.1732 35.5654 22.1921 35.5811 22.208C35.5969 22.224 35.6158 22.2369 35.6367 22.2451C35.6576 22.2534 35.6798 22.2575 35.7021 22.2568H37.0264C37.0488 22.2575 37.072 22.2534 37.0928 22.2451C37.1135 22.2369 37.1327 22.2239 37.1484 22.208C37.1641 22.1921 37.1765 22.1731 37.1846 22.1523C37.1927 22.1314 37.1971 22.1085 37.1963 22.0859V19.0811H37.8438L39.9287 22.1719C39.9449 22.194 39.9668 22.2113 39.9912 22.2236C40.0157 22.2359 40.0429 22.2424 40.0703 22.2422H41.6758C41.7069 22.2446 41.7382 22.2377 41.7656 22.2227C41.7931 22.2076 41.8162 22.185 41.8311 22.1572C41.8461 22.1309 41.853 22.1005 41.8506 22.0703C41.8481 22.0401 41.8364 22.0108 41.8174 21.9873L39.7314 18.9961C41.267 18.6984 41.8173 17.3943 41.8174 16.2178C41.8174 14.871 41.084 13.3115 39.041 13.3115H35.7021ZM44.5205 13.3115C44.4982 13.3108 44.4758 13.315 44.4551 13.3232C44.4343 13.3315 44.4151 13.3436 44.3994 13.3594C44.3835 13.3754 44.3715 13.395 44.3633 13.416C44.3552 13.4369 44.3508 13.459 44.3516 13.4814V22.0723C44.3508 22.0947 44.3551 22.1177 44.3633 22.1387C44.3715 22.1595 44.3837 22.1786 44.3994 22.1943C44.4152 22.2103 44.4342 22.2232 44.4551 22.2314C44.4758 22.2397 44.4982 22.2429 44.5205 22.2422H49.79C49.8123 22.243 49.8348 22.2397 49.8555 22.2314C49.8763 22.2233 49.8954 22.2103 49.9111 22.1943C49.927 22.1785 49.94 22.1596 49.9482 22.1387C49.9564 22.1177 49.9598 22.0947 49.959 22.0723V20.8672C49.9598 20.8446 49.9564 20.8217 49.9482 20.8008C49.94 20.7799 49.9269 20.761 49.9111 20.7451C49.8954 20.7293 49.8763 20.7163 49.8555 20.708C49.8348 20.6999 49.8123 20.6965 49.79 20.6973H46V18.6279H49.1846C49.2069 18.6287 49.2292 18.6244 49.25 18.6162C49.2708 18.6079 49.2898 18.5951 49.3057 18.5791C49.3213 18.5633 49.3336 18.5443 49.3418 18.5234C49.35 18.5025 49.3542 18.4795 49.3535 18.457V17.252C49.3541 17.2296 49.3499 17.2074 49.3418 17.1865C49.3336 17.1656 49.3214 17.1458 49.3057 17.1299C49.2899 17.114 49.2707 17.102 49.25 17.0938C49.2292 17.0856 49.2069 17.0813 49.1846 17.082H46V14.8711H49.6631C49.6854 14.8719 49.7078 14.8676 49.7285 14.8594C49.7492 14.8512 49.7685 14.8389 49.7842 14.8232C49.8001 14.8072 49.8131 14.7876 49.8213 14.7666C49.8294 14.7457 49.8328 14.7227 49.832 14.7002V13.4814C49.8328 13.4591 49.8293 13.4368 49.8213 13.416C49.8131 13.395 49.8001 13.3754 49.7842 13.3594C49.7684 13.3436 49.7493 13.3315 49.7285 13.3232C49.7078 13.315 49.6854 13.3107 49.6631 13.3115H44.5205ZM52.6924 13.3115C52.6701 13.3108 52.6477 13.315 52.627 13.3232C52.6062 13.3315 52.587 13.3436 52.5713 13.3594C52.5554 13.3754 52.5434 13.395 52.5352 13.416C52.5271 13.4369 52.5227 13.459 52.5234 13.4814V22.0723C52.5226 22.0947 52.527 22.1177 52.5352 22.1387C52.5434 22.1595 52.5555 22.1786 52.5713 22.1943C52.5871 22.2103 52.6061 22.2232 52.627 22.2314C52.6477 22.2397 52.6701 22.2429 52.6924 22.2422H57.9619C57.9842 22.243 58.0066 22.2397 58.0273 22.2314C58.0482 22.2233 58.0671 22.2103 58.083 22.1943C58.0988 22.1785 58.1119 22.1596 58.1201 22.1387C58.1283 22.1177 58.1317 22.0947 58.1309 22.0723V20.8672C58.1316 20.8446 58.1283 20.8217 58.1201 20.8008C58.1119 20.7799 58.0988 20.761 58.083 20.7451C58.0671 20.7293 58.0482 20.7163 58.0273 20.708C58.0066 20.6999 57.9842 20.6965 57.9619 20.6973H54.1719V18.6279H57.3564C57.3787 18.6287 57.4011 18.6244 57.4219 18.6162C57.4427 18.6079 57.4617 18.5951 57.4775 18.5791C57.4932 18.5633 57.5055 18.5443 57.5137 18.5234C57.5219 18.5025 57.5262 18.4795 57.5254 18.457V17.252C57.5261 17.2296 57.5218 17.2074 57.5137 17.1865C57.5055 17.1656 57.4933 17.1458 57.4775 17.1299C57.4617 17.114 57.4426 17.102 57.4219 17.0938C57.4011 17.0856 57.3787 17.0813 57.3564 17.082H54.1719V14.8711H57.835C57.8573 14.8719 57.8797 14.8676 57.9004 14.8594C57.9211 14.8512 57.9403 14.8389 57.9561 14.8232C57.9719 14.8072 57.985 14.7876 57.9932 14.7666C58.0013 14.7457 58.0047 14.7227 58.0039 14.7002V13.4814C58.0047 13.4591 58.0012 13.4368 57.9932 13.416C57.985 13.395 57.9719 13.3754 57.9561 13.3594C57.9402 13.3436 57.9212 13.3315 57.9004 13.3232C57.8796 13.315 57.8573 13.3107 57.835 13.3115H52.6924ZM60.8643 13.3115C60.842 13.3108 60.8195 13.315 60.7988 13.3232C60.778 13.3315 60.7589 13.3436 60.7432 13.3594C60.7273 13.3754 60.7152 13.395 60.707 13.416C60.6988 13.4369 60.6945 13.459 60.6953 13.4814V22.0723C60.6945 22.0947 60.6988 22.1177 60.707 22.1387C60.7152 22.1595 60.7274 22.1786 60.7432 22.1943C60.759 22.2103 60.7779 22.2232 60.7988 22.2314C60.8195 22.2397 60.842 22.2429 60.8643 22.2422H62.1748C62.1971 22.243 62.2194 22.2397 62.2402 22.2314C62.2611 22.2233 62.28 22.2103 62.2959 22.1943C62.3116 22.1785 62.3248 22.1596 62.333 22.1387C62.3412 22.1177 62.3445 22.0947 62.3438 22.0723V16.5293L65.7109 22.1572C65.7242 22.1833 65.7447 22.2046 65.7695 22.2197C65.7943 22.2346 65.8227 22.2426 65.8516 22.2422H67.0781C67.1004 22.2429 67.1229 22.2397 67.1436 22.2314C67.1644 22.2232 67.1833 22.2103 67.1992 22.1943C67.215 22.1786 67.2272 22.1595 67.2354 22.1387C67.2435 22.1177 67.2479 22.0947 67.2471 22.0723V13.4814C67.2478 13.459 67.2434 13.4369 67.2354 13.416C67.2272 13.395 67.2151 13.3754 67.1992 13.3594C67.1834 13.3436 67.1643 13.3315 67.1436 13.3232C67.1229 13.315 67.1004 13.3108 67.0781 13.3115H65.7676C65.7452 13.3107 65.723 13.315 65.7021 13.3232C65.6813 13.3315 65.6623 13.3436 65.6465 13.3594C65.6306 13.3754 65.6176 13.395 65.6094 13.416C65.6013 13.4368 65.598 13.4591 65.5986 13.4814V18.9814L62.2734 13.3965C62.2602 13.3705 62.2397 13.349 62.2148 13.334C62.1901 13.319 62.1617 13.311 62.1328 13.3115H60.8643Z" fill="#42693D"/>
<path d="M38.9846 14.8706H37.1953V17.5357H38.9424C39.8018 17.5357 40.1118 16.8552 40.1118 16.2031C40.1118 15.5936 39.8159 14.8706 38.9846 14.8706Z" fill="#42693D"/>
</g>
<defs>
<clipPath id="clip0_1070_154">
<rect width="86" height="48" fill="white"/>
</clipPath>
</defs>
</svg>
