<svg width="127" height="27" viewBox="0 0 127 27" fill="none" xmlns="http://www.w3.org/2000/svg">
<path d="M8.43808 25.6501C8.41709 25.6501 8.41709 25.6711 8.43808 25.6501C3.50537 23.719 0 18.9122 0 13.2868C0 5.94024 5.94024 0 13.2868 0C15.7637 0 18.0936 0.692677 20.0877 1.86813C17.7997 2.45586 16.2884 4.19805 16.2884 6.90579V7.26262L10.9779 19.7728L5.91925 7.19965H3.61032L9.6765 22.5435L8.43808 25.6501ZM13.2868 26.5736C12.3423 26.5736 11.4187 26.4687 10.5161 26.2798L16.2884 12.5522V23.0473H18.4084V9.15174H22.3966V7.19965H18.5344H18.4084V6.52796C18.4084 5.77231 18.7653 5.05865 19.458 4.303C19.9407 3.84121 20.7174 3.58933 21.8298 3.52636L22.2916 3.50537C24.9154 5.94024 26.5736 9.40363 26.5736 13.2658C26.5736 20.6334 20.6334 26.5736 13.2868 26.5736Z" fill="url(#paint0_linear_73447_133)"/>
<path d="M126.97 17.8208V19.3321H118.217V17.8208L124.682 8.774H118.637V7.28369H126.655V8.79499L120.253 17.8208H126.97Z" fill="#3F3F3F"/>
<path d="M117.168 13.3709C117.21 15.1131 116.58 16.6034 115.3 17.8838C114.019 19.1222 112.508 19.731 110.766 19.668C109.087 19.626 107.659 18.9963 106.505 17.7789C105.329 16.5404 104.763 15.0921 104.763 13.3919C104.763 11.6497 105.392 10.1174 106.652 8.85802C107.911 7.5986 109.402 6.9689 111.144 7.03187C112.928 7.09484 114.397 7.80851 115.594 9.17287V3.10669H117.189V13.3709H117.168ZM114.166 16.7084C115.111 15.7218 115.573 14.5674 115.531 13.245C115.51 11.9646 115.048 10.8941 114.166 9.9705C113.306 9.06792 112.256 8.60613 111.018 8.60613C109.737 8.58514 108.646 9.04693 107.743 9.9705C106.82 10.8731 106.379 11.9646 106.358 13.245C106.337 14.5254 106.757 15.6379 107.638 16.5824C108.499 17.548 109.527 18.0308 110.787 18.0727C112.109 18.1567 113.243 17.7159 114.166 16.7084Z" fill="#3F3F3F"/>
<path d="M101.908 8.92124C103.084 10.1387 103.671 11.608 103.671 13.3082C103.671 15.0294 103.042 16.5407 101.761 17.8211C100.502 19.0805 99.0115 19.6682 97.2903 19.6053C95.6111 19.5633 94.1628 18.9336 93.0083 17.7161C91.8539 16.4987 91.2661 15.0294 91.2661 13.3292C91.2661 11.587 91.8958 10.0547 93.1552 8.79529C94.4146 7.53588 95.905 6.90617 97.6472 6.96914C99.3264 7.03211 100.754 7.66182 101.908 8.92124ZM100.691 16.6456C101.656 15.6381 102.097 14.5046 102.076 13.1613C102.034 11.9018 101.572 10.8104 100.691 9.88679C99.8301 8.98421 98.8016 8.54341 97.5632 8.54341C96.2828 8.52242 95.1913 8.98421 94.2887 9.88679C93.3861 10.8104 92.9453 11.8809 92.9243 13.1823C92.9034 14.4417 93.3022 15.5751 94.1838 16.5197C95.0444 17.4853 96.0729 17.968 97.3323 18.01C98.6337 18.094 99.7672 17.6322 100.691 16.6456Z" fill="#3F3F3F"/>
<path d="M88.4106 8.92099C89.5861 10.1384 90.1738 11.6077 90.1738 13.308C90.1738 15.0292 89.5441 16.5404 88.2637 17.8209C87.0043 19.0803 85.514 19.668 83.7718 19.605C82.0926 19.563 80.6652 18.9333 79.5107 17.7159C78.3353 16.4985 77.7686 15.0292 77.7686 13.3289C77.7686 11.5868 78.3983 10.0545 79.6577 8.79505C80.9171 7.53563 82.4074 6.90593 84.1496 6.9689C85.8078 7.03187 87.2561 7.66158 88.4106 8.92099ZM87.1932 16.6454C88.1377 15.6379 88.5995 14.5044 88.5785 13.161C88.5365 11.9016 88.0748 10.8101 87.1932 9.88654C86.3326 8.98396 85.3041 8.54317 84.0656 8.54317C82.7852 8.52218 81.6937 8.98396 80.7912 9.88654C79.8886 10.8101 79.4268 11.8806 79.4268 13.182C79.4058 14.4414 79.8046 15.5749 80.6862 16.5195C81.5468 17.485 82.5753 17.9678 83.8347 18.0098C85.1361 18.0937 86.2486 17.6319 87.1932 16.6454Z" fill="#3F3F3F"/>
<path d="M77.7057 3.02246V4.44979L77.2859 4.47078C76.4463 4.51276 75.8586 4.70167 75.4808 5.05851C74.956 5.62525 74.6831 6.17099 74.6831 6.73773V7.2415H77.5798V8.71081H74.6831V19.3109H73.0669V7.0106C73.0669 4.44979 74.8091 3.00146 77.2859 3.00146H77.7057V3.02246Z" fill="#3F3F3F"/>
<path d="M70.6743 7.28369V14.1685C70.6743 15.7428 70.1705 17.0442 69.163 18.0727C68.1554 19.1222 66.896 19.6469 65.3427 19.6469C63.8105 19.6469 62.53 19.1222 61.5015 18.0727C60.515 17.0232 59.9902 15.7218 59.9902 14.1685V7.28369H61.6275V14.3364C61.6275 15.3439 61.9843 16.2255 62.74 16.9602C63.4746 17.6739 64.3352 18.0307 65.3427 18.0307C66.3503 18.0307 67.1899 17.6529 67.9245 16.9602C68.6802 16.2045 69.058 15.3439 69.058 14.3364V7.28369H70.6743Z" fill="#3F3F3F"/>
<path d="M56.6523 8.92099C57.8068 10.1384 58.3945 11.6077 58.3945 13.308C58.3945 15.0292 57.7648 16.5404 56.4844 17.8209C55.225 19.0803 53.7347 19.668 52.0135 19.605C50.3342 19.563 48.8859 18.9333 47.7315 17.7159C46.577 16.4985 45.9893 15.0292 45.9893 13.3289C45.9893 11.5868 46.619 10.0545 47.8784 8.79505C49.1378 7.53563 50.6281 6.90593 52.3703 6.9689C54.0495 7.03187 55.4978 7.66158 56.6523 8.92099ZM55.4139 16.6454C56.3794 15.6379 56.8202 14.5044 56.7992 13.161C56.7573 11.9016 56.2955 10.8101 55.4139 9.88654C54.5533 8.98396 53.5248 8.54317 52.2863 8.54317C50.9849 8.52218 49.9144 8.98396 48.9909 9.88654C48.0883 10.8101 47.6475 11.8806 47.6265 13.182C47.6055 14.4414 48.0043 15.5749 48.8859 16.5195C49.7465 17.485 50.775 17.9678 52.0345 18.0098C53.3778 18.0937 54.4903 17.6319 55.4139 16.6454Z" fill="#3F3F3F"/>
<path d="M46.073 7.28369L39.2302 23.5511H37.509L39.3141 18.9543L34.6963 7.28369H36.4595L40.3007 16.8343L44.3728 7.28369H46.073Z" fill="#3F3F3F"/>
<defs>
<linearGradient id="paint0_linear_73447_133" x1="17.8986" y1="5.15999" x2="8.54161" y2="21.1779" gradientUnits="userSpaceOnUse">
<stop stop-color="#9DCB3C"/>
<stop offset="1" stop-color="#5A9941"/>
</linearGradient>
</defs>
</svg>
