<svg xmlns="http://www.w3.org/2000/svg" width="60" height="33" viewBox="0 0 60 33" fill="none"><path d="M35.6373 11.3193H26.8413V31.2466H35.6373V11.3193Z" fill="white"></path><path d="M0 11.3193H8.83822V31.2466H0V11.3193Z" fill="#1C1D38"></path><path d="M4.48447 2.5498H14.464V3.11108L2.74757 10.0854H2.11353L4.48447 2.5498Z" fill="#44C8F5"></path><path d="M26.8416 11.3193H35.6375V31.2466H26.8416V11.3193Z" fill="#1C1D38"></path><path d="M31.2645 0C28.64 0 26.5265 1.99164 26.5265 4.42506C26.5265 6.89469 28.64 8.88633 31.2645 8.88995C33.8468 8.88995 35.9603 6.89469 35.9603 4.42506C35.9603 1.99164 33.843 0 31.2645 0Z" fill="#1C1D38"></path><path d="M60.0002 18.5335V32.0441H58.9434L51.6269 27.2207C51.3733 29.6106 48.8794 31.8449 44.9867 31.8449C41.2631 31.8449 38.5579 30.1321 38.5579 26.4638C38.5579 22.3176 42.4928 19.5293 51.2042 19.4497V15.0282C51.2042 13.3951 50.9506 11.2803 48.4144 11.2803C45.7937 11.2803 42.831 13.3915 40.9711 15.2274V12.1965C43.7186 11.2405 47.3154 10.7227 49.4289 10.7227C56.4918 10.7227 60.0002 12.3558 60.0002 18.5335ZM51.2042 26.663V19.9276C47.9033 20.4853 46.6352 22.7558 46.6352 25.1494C46.6352 27.3003 47.4384 28.7778 49.0446 28.7778C50.5702 28.7778 51.2042 27.5828 51.2042 26.663Z" fill="#1C1D38"></path><path d="M13.4766 2.54883H22.2725V31.2864H13.4766V2.54883Z" fill="#1C1D38"></path></svg>