<svg width="154" height="39" viewBox="0 0 154 39" fill="none" xmlns="http://www.w3.org/2000/svg">
<path d="M44.1838 1.69951H45.868V7.08031C45.868 7.15871 45.9305 7.22111 46.0089 7.22111H47.4978C47.5762 7.22111 47.6386 7.15871 47.6386 7.08031V1.69951H49.3132C49.3917 1.69951 49.4541 1.63711 49.4541 1.55871V0.17791C49.4541 0.0995095 49.3917 0.0371094 49.3132 0.0371094H44.1838C44.1054 0.0371094 44.043 0.0995095 44.043 0.17791V1.55871C44.043 1.63711 44.1054 1.69951 44.1838 1.69951Z" fill="#242424"/>
<path d="M50.927 7.22111H52.4159C52.4943 7.22111 52.5568 7.15871 52.5568 7.08031V4.41151H55.0366V7.08031C55.0366 7.15871 55.099 7.22111 55.1775 7.22111H56.6663C56.7448 7.22111 56.8072 7.15871 56.8072 7.08031V0.17791C56.8072 0.0995095 56.7448 0.0371094 56.6663 0.0371094H55.1775C55.099 0.0371094 55.0366 0.0995095 55.0366 0.17791V2.70911H52.5568V0.17791C52.5568 0.0995095 52.4943 0.0371094 52.4159 0.0371094H50.927C50.8486 0.0371094 50.7861 0.0995095 50.7861 0.17791V7.07871C50.7861 7.15711 50.8486 7.21951 50.927 7.21951V7.22111Z" fill="#242424"/>
<path d="M58.3505 7.1824H62.4344C62.5129 7.1824 62.5753 7.12 62.5753 7.0416V5.7008C62.5753 5.6224 62.5129 5.56 62.4344 5.56H59.9706V4.3232H62.1879C62.2664 4.3232 62.3288 4.2608 62.3288 4.1824V2.8816C62.3288 2.8032 62.2664 2.7408 62.1879 2.7408H59.9706V1.6224H62.4136C62.4921 1.6224 62.5545 1.56 62.5545 1.4816V0.1408C62.5545 0.0623999 62.4921 0 62.4136 0H58.3489C58.2704 0 58.208 0.0623999 58.208 0.1408V7.0416C58.208 7.12 58.2704 7.1824 58.3489 7.1824H58.3505Z" fill="#242424"/>
<path d="M65.4037 28.5953C65.4342 28.5489 65.455 28.4977 65.4646 28.4433C65.5638 27.8769 65.463 27.3377 65.186 26.9649C64.9651 26.6689 64.6465 26.4881 64.2655 26.4433C64.1182 26.4257 63.9725 26.4913 63.8877 26.6129C61.9217 29.4385 61.1389 30.5329 59.943 31.5633C60.8731 29.5457 60.8811 27.0897 60.8875 24.5121C60.8923 22.7281 60.8971 20.8817 61.2317 19.1857C61.4094 18.3617 61.8097 17.8465 62.1298 17.4321C62.4068 17.0753 62.6453 16.7665 62.6453 16.3793C62.6453 16.0241 62.5685 15.7105 62.3972 15.3617C62.2483 15.0065 61.9297 14.7857 61.5631 14.7857C58.6702 14.7857 53.2559 22.1345 51.061 25.2929C51.061 25.2929 51.061 25.2961 51.0594 25.2961C47.7936 30.1505 44.2379 33.5393 42.4145 33.5393C42.2015 33.5393 42.0927 33.3025 42.0927 32.8353C42.0927 30.8897 43.9786 27.9457 44.7902 26.6801L50.3166 18.9041C50.3294 18.8881 50.339 18.8689 50.3486 18.8513C50.3582 18.8337 50.3646 18.8241 50.3646 18.8225C50.3694 18.8225 50.3855 18.8177 50.4143 18.8177H53.3856C53.8659 18.8177 54.383 18.3873 54.383 17.6929C54.383 17.1201 53.8851 16.4817 53.1727 16.4817H52.2441C52.1977 16.4817 52.1657 16.4641 52.1481 16.4305C52.1209 16.3777 52.1369 16.2993 52.1929 16.2193C52.7548 15.4033 53.1022 14.3633 53.1022 13.5041C53.1022 12.6449 52.8109 11.7889 52.2137 11.0081C52.0616 10.8065 51.7719 10.6753 51.4741 10.6753C51.1683 10.6753 50.901 10.8081 50.7184 11.0497C50.7152 11.0545 50.7104 11.0593 50.7072 11.0657L47.0283 16.4689C47.0107 16.4737 46.9771 16.4817 46.9227 16.4817H42.7426C42.1519 16.4817 41.7869 17.0657 41.7869 17.6065C41.7869 18.2961 42.3072 18.8161 42.9972 18.8161H45.3457L42.597 22.7697C41.7597 23.9089 41.0377 24.9681 40.4229 25.9617C35.7466 32.5329 31.1039 33.5377 28.7073 33.5377C26.5733 33.5377 25.1949 32.2257 25.1949 30.1969C25.1949 29.5649 25.2541 29.4097 25.2894 29.3745C25.2942 29.3697 25.2974 29.3665 25.3022 29.3633C25.3838 29.3217 25.8321 29.3217 26.4532 29.3217C31.2928 29.3217 34.4386 27.5153 36.2253 25.9985C38.3209 24.2209 39.6224 21.9009 39.6224 19.9441C39.6224 17.7425 38.1576 16.4801 35.6025 16.4801C32.6536 16.4801 28.9891 18.1905 26.0402 20.9425C22.856 23.9137 21.0293 27.5505 21.0293 30.9185C21.0293 34.7601 23.5155 37.1473 27.5178 37.1473C29.2917 37.1473 33.2107 36.6065 37.7269 32.5889C37.6885 32.9185 37.6677 33.2401 37.6677 33.5553C37.6677 35.8049 38.8044 37.1473 40.7079 37.1473C44.0522 37.1473 48.0433 33.8257 52.5723 27.2769C52.5723 27.2769 52.5723 27.2753 52.5723 27.2737L52.6604 27.1473C54.367 24.7057 56.2881 21.9553 57.9995 20.0913C57.5368 21.7873 57.2502 23.6273 56.9717 25.4097C56.2881 29.7921 55.6973 33.5777 52.8765 33.5777C51.9015 33.5777 51.5109 32.6881 51.3556 31.9409C51.3556 31.9361 51.354 31.9297 51.3524 31.9249C51.2516 31.5201 50.901 31.2273 50.4799 31.1953C50.0605 31.1633 49.6891 31.3953 49.5242 31.7873C49.3417 32.2449 49.2408 32.7969 49.2408 33.3409C49.2408 34.3345 49.5962 35.2625 50.243 35.9553C50.9698 36.7345 51.9992 37.1457 53.2175 37.1457C55.9183 37.1457 58.6574 35.9393 61.355 33.5617C63.068 32.0513 63.6075 31.2849 65.4005 28.5905L65.4037 28.5953ZM37.0305 19.8225C37.0305 20.6753 36.2141 22.2225 34.421 23.6081C32.9514 24.7441 30.3915 26.0977 26.5381 26.0977C26.5061 26.0977 26.4965 26.0849 26.4885 26.0721C26.4628 26.0289 26.4468 25.9057 26.5509 25.7121C26.5509 25.7121 26.5509 25.7121 26.5509 25.7105C28.8386 21.3985 33.0138 18.8209 35.7274 18.8209C37.0273 18.8209 37.0273 19.5745 37.0273 19.8225H37.0305Z" fill="#242424"/>
<path d="M71.9887 37.8305L86.8004 16.7313C88.8848 13.6897 92.6246 9.26729 94.8707 7.53129C95.114 7.34249 95.1236 7.33449 95.5575 7.53449C96.486 7.97449 97.6275 8.42409 99.0491 8.42409C100.32 8.42409 101.415 8.12489 102.217 7.55849C102.975 7.02409 103.408 6.27849 103.408 5.51209C103.408 3.64649 101.242 2.98409 99.3885 2.98409C97.9204 2.98409 96.2363 3.32009 94.7714 3.90569C94.7602 3.91049 94.7506 3.91369 94.741 3.92009C94.4112 4.08489 94.2895 4.02569 94.2495 4.00489C92.0194 2.88969 89.2114 1.75049 85.3036 1.75049C81.1075 1.75049 77.2525 3.02409 74.4509 5.33609C71.843 7.48809 70.3477 10.3745 70.3477 13.2545C70.3477 15.8705 71.9999 17.6977 74.3676 17.6977C75.4307 17.6977 76.2904 17.4385 76.9163 16.9297C77.2685 16.6497 77.4094 16.1889 77.2669 15.7841C77.1388 15.4193 76.8107 15.1921 76.4104 15.1921C75.0512 15.1921 74.1739 14.2817 74.1739 12.8721C74.1739 10.7665 75.3362 8.63049 77.363 7.01449C79.521 5.29129 82.3867 4.34249 85.4316 4.34249C87.8394 4.34249 89.8054 4.69289 91.4479 5.41769C91.552 5.46089 91.6176 5.52969 91.6256 5.60009C91.6304 5.64969 91.6032 5.69769 91.5504 5.73289C88.9713 7.45129 85.2171 11.6641 83.0767 14.7441L70.5238 32.7329C70.0019 33.4721 69.7266 34.3457 69.7266 35.2625C69.7266 36.4705 70.2789 38.2161 71.2779 38.2161C71.5724 38.2161 71.827 38.0769 71.9903 37.8321L71.9887 37.8305ZM101.031 5.55529C101.031 5.76329 100.559 6.25929 99.3901 6.25929C98.6937 6.25929 97.8916 5.98889 97.7235 5.80489C97.9092 5.57769 98.9787 5.23369 99.944 5.23369C100.759 5.23369 101.031 5.48649 101.031 5.55369V5.55529Z" fill="#242424"/>
<path d="M153.447 25.6432C153.226 25.3472 152.907 25.1664 152.526 25.1216C152.377 25.104 152.23 25.1712 152.145 25.296C147.315 32.4688 142.442 33.5392 139.967 33.5392C137.833 33.5392 136.454 32.2272 136.454 30.1984C136.454 29.5664 136.514 29.4112 136.549 29.376C136.554 29.3712 136.557 29.368 136.562 29.3648C136.643 29.3232 137.092 29.3232 137.713 29.3232C142.552 29.3232 145.698 27.5168 147.485 26C149.58 24.2224 150.882 21.9024 150.882 19.9456C150.882 17.744 149.417 16.4816 146.862 16.4816C143.913 16.4816 140.249 18.192 137.3 20.944C135.787 22.3552 134.583 23.9152 133.733 25.5264C130.403 30.4736 127.39 33.5376 125.84 33.5376C125.744 33.5376 125.519 33.5376 125.519 32.8336C125.519 30.9536 127.299 28.1744 128.259 26.6768L138.723 11.7136C139.304 10.8912 139.563 10.1376 139.563 9.27038C139.563 8.40318 139.291 7.62718 138.68 6.78238C138.502 6.53278 138.235 6.39038 137.948 6.39038C137.662 6.39038 137.394 6.53278 137.215 6.78398L125.981 22.7744C125.211 23.8528 124.542 24.8592 123.962 25.8032C121.519 29.3008 119.012 31.5744 116.326 32.7296C119.574 29.2192 121.902 24.208 121.902 20.6688C121.902 19.4 121.537 18.3376 120.847 17.5984C120.2 16.9056 119.285 16.5248 118.265 16.5248C117.693 16.5248 117.195 16.5696 116.745 16.6592C116.669 16.6736 116.621 16.6448 116.605 16.616C116.598 16.6064 116.587 16.5856 116.625 16.536C116.63 16.5296 116.633 16.5248 116.638 16.5184L119.959 11.752C120.479 10.9968 120.753 10.1392 120.753 9.27038C120.753 8.40158 120.452 7.50238 119.912 6.78238C119.734 6.53278 119.467 6.39038 119.18 6.39038C118.894 6.39038 118.627 6.53278 118.447 6.78558L107.598 22.2624C106.858 23.288 106.239 24.2608 105.725 25.2C105.693 25.2256 105.662 25.2544 105.638 25.2896C102.115 30.3776 98.9144 33.5376 97.2878 33.5376C97.1309 33.5376 97.0525 33.3152 97.0525 32.8768C97.0525 31.2896 98.0178 29.0352 99.7004 26.6896L104.3 20.3152C104.3 20.3152 104.309 20.3008 104.314 20.2928C104.793 19.5264 105.056 18.6352 105.056 17.7824C105.056 16.808 104.522 14.9136 103.547 14.9136C103.245 14.9136 102.945 15.0672 102.795 15.2944L102.363 15.8992C102.246 16.0688 101.204 17.3984 100.797 17.824C100.712 17.7664 100.575 17.664 100.365 17.4768C99.9486 17.1072 98.8151 16.4816 97.203 16.4816C90.8489 16.4816 81.8213 24.872 81.8213 32.7056C81.8213 35.4464 83.2477 37.1488 85.5434 37.1488C88.3915 37.1488 91.0762 34.8896 92.4242 33.544C92.4386 33.5296 92.4802 33.4864 92.5491 33.5152C92.5731 33.5248 92.6307 33.5584 92.6307 33.6432C92.6307 35.7744 93.7738 37.1504 95.5444 37.1504C97.9634 37.1504 100.551 35.4416 103.831 31.5824C103.828 31.688 103.823 31.7936 103.823 31.8992C103.823 35.0896 105.902 37.1504 109.119 37.1504C114.282 37.1504 118.327 34.9072 121.223 32.4272C121.17 32.816 121.143 33.192 121.143 33.5584C121.143 35.808 122.264 37.1504 124.142 37.1504C126.537 37.1504 129.085 35.4016 132.31 31.4448C132.527 34.9776 134.964 37.1504 138.781 37.1504C141.148 37.1504 147.336 36.1888 153.663 27.2832C153.698 27.2352 153.72 27.1792 153.732 27.12C153.831 26.5536 153.732 26.0144 153.453 25.6416L153.447 25.6432ZM145.679 23.608C144.209 24.744 141.649 26.0976 137.796 26.0976C137.764 26.0976 137.754 26.0848 137.746 26.0736C137.721 26.0304 137.705 25.9072 137.809 25.7136C137.809 25.7136 137.809 25.7136 137.809 25.712C140.097 21.4 144.272 18.8224 146.987 18.8224C148.287 18.8224 148.287 19.576 148.287 19.824C148.287 20.6768 147.47 22.224 145.677 23.6096L145.679 23.608ZM118.841 20.5872C118.841 25.6112 111.586 33.5824 108.731 33.5824C107.859 33.5824 107.814 32.4992 107.814 32.2832C107.814 30.1376 108.861 27.5008 110.763 24.8576L112.506 22.3504C113.704 20.6528 116.033 18.8208 117.709 18.8208C118.047 18.8208 118.839 18.8208 118.839 20.5888L118.841 20.5872ZM99.4155 20.0288L94.6575 26.8208C94.6575 26.8208 94.6575 26.8224 94.6559 26.824C90.9802 32.1696 88.0041 33.5824 86.9442 33.5824C86.1838 33.5824 86.0701 32.768 86.0701 32.2832C86.0701 29.6352 87.583 26.3072 90.1157 23.3808C92.5507 20.568 95.3315 18.8192 97.3711 18.8192C98.0339 18.8192 98.924 19.016 99.3946 19.9584C99.4123 19.9936 99.4155 20.0192 99.4155 20.0288Z" fill="#242424"/>
<path d="M16.568 23.3776C22.1776 22.1472 27.347 19.0384 31.1252 14.6224C33.2864 12.096 34.4343 9.70242 34.5383 7.50722C34.6312 5.54882 33.8756 3.82562 32.3531 2.52482C28.6726 -0.620784 23.2534 0.0064164 20.3526 0.659216C16.0717 1.62242 12.54 3.57122 11.3906 4.91522C10.7614 5.64962 10.6221 6.40962 10.6157 6.91682C10.6077 7.52002 10.7902 8.07202 11.0816 8.32002C11.4514 8.63522 11.8933 8.62402 12.3944 8.28162C18.2746 4.28162 26.5529 1.76482 30.3135 4.97762C31.2004 5.73602 31.6215 6.76802 31.5318 7.96482C31.4198 9.44642 30.5649 11.1312 28.9895 12.9728C26.3544 16.0528 22.0816 18.4608 17.2644 19.5824C16.3086 19.8048 15.3721 19.9632 14.4724 20.0592L19.5921 12.52C20.1188 11.7536 20.3862 10.9184 20.3862 10.0384C20.3862 9.15842 20.0484 7.79042 19.5025 7.24482C19.3007 7.04322 19.0158 6.93762 18.7388 6.96002C18.4747 6.98242 18.2409 7.11682 18.0776 7.34562L9.57193 19.8704C8.55374 19.6336 7.71326 19.2592 7.11771 18.7504C6.60542 18.3136 6.29323 17.7456 6.2356 17.1536C6.17637 16.536 6.39089 15.9232 6.85356 15.3824C7.13852 15.0496 7.16734 14.6 6.9304 14.2384C6.68226 13.8608 6.2228 13.696 5.78254 13.8304C4.95166 14.0912 4.11117 14.6512 3.53164 15.328C1.85227 17.2912 2.13884 19.8208 4.24725 21.6224C5.07013 22.3264 6.09792 22.8704 7.2762 23.2528L0.838885 32.7312C0.289767 33.5088 0 34.384 0 35.2608C0 36.5296 0.62276 38.2992 1.63614 38.2992C1.93072 38.2992 2.18526 38.16 2.35176 37.9104L11.8564 23.9152C13.3437 23.9152 14.9318 23.7376 16.5744 23.3776H16.568Z" fill="#242424"/>
</svg>
