<?xml version="1.0" encoding="UTF-8" standalone="no"?>
<!-- Created with Inkscape (http://www.inkscape.org/) -->
<svg xmlns:svg="http://www.w3.org/2000/svg" xmlns="http://www.w3.org/2000/svg" version="1.0" width="1024" height="438" viewBox="0 0 82.099991 35.081696" id="svg15680" xml:space="preserve"><defs id="defs15683"/><g transform="translate(-479.47342,-4.6557803)" id="layer1"><path d="M 40.125,0 C 39.576335,-0.012955076 39.015937,0.10968751 38.53125,0.28125 C 38.021263,0.376125 37.482499,0.385125 37.03125,0.625 C 36.450012,0.94875 35.759977,1.15125 35.34375,1.75 C 35.017488,2.14 34.581174,2.44 34.5,2.9375 C 34.421225,3.555 34.547474,4.1638749 35.0625,4.5625 C 35.214975,4.7275 35.496239,4.74125 35.5625,4.96875 C 35.499975,5.405 35.262487,5.7823749 35.125,6.1875 C 34.859987,6.63875 35.531225,6.8725001 35.28125,7.34375 L 34.34375,9.03125 C 34.227513,9.27625 34.091263,9.5174998 34.09375,9.8125 C 34.203762,10.28125 34.747514,10.097375 35.03125,10.375 C 35.230037,10.635 34.919989,10.85125 34.90625,11.09375 C 34.83495,11.2875 35.168777,11.376375 35.03125,11.5625 C 34.847537,11.872375 35.192474,12.086375 35.28125,12.34375 C 35.309938,12.72125 35.081273,13.133625 35.375,13.4375 C 36.108763,13.9575 37.224962,13.549875 38,13.9375 C 38.394975,14.2175 38.315011,14.763625 38.3125,15.1875 C 38.096238,17.028625 37.199999,18.61875 36.0625,20.0625 C 35.947488,20.23875 35.848776,20.48625 35.9375,20.6875 C 36.106225,20.77375 36.331274,20.717501 36.5,20.65625 C 38.597513,19.9475 40.243752,18.135 42.28125,17.28125 C 43.069975,16.901375 43.945038,16.7875 44.8125,16.59375 C 45.016287,16.427375 44.928739,16.122375 44.875,15.90625 C 44.451263,14.793625 43.955,13.65625 44.03125,12.375 C 44.04625,11.91125 44.556237,11.79 44.875,11.625 C 45.418737,11.47625 45.767536,10.93625 46,10.46875 C 46.4488,9.857375 46.998751,9.2776252 47.0625,8.5 C 47.0937,7.808875 47.075002,7.0574998 47.3125,6.4375 C 47.494987,5.7675 47.376286,4.988625 47.15625,4.375 C 47.090037,3.535 46.834987,2.7937501 46.28125,2.15625 C 45.761275,1.4575 44.91625,1.35375 44.28125,0.84375 C 43.694938,0.31875 42.881251,0.26124999 42.09375,0.28125 C 41.60875,0.28625 41.124999,0.16125 40.65625,0.0625 C 40.475319,0.02159375 40.307888,0.0043183586 40.125,0 z M 16.25,19 L 13.65625,19.625 L 13.65625,19.96875 L 14.8125,20.375 L 14.8125,30.09375 L 13.71875,30.625 L 13.71875,31.03125 L 17.34375,31.03125 L 17.34375,30.625 L 16.25,30.09375 L 16.25,24.5625 C 16.554975,24.467501 17.1575,24.375 17.59375,24.375 C 18.843751,24.375001 19.3125,24.93 19.3125,26.1875 L 19.3125,30.09375 L 18.21875,30.625 L 18.21875,31.03125 L 21.875,31.03125 L 21.875,30.625 L 20.71875,30.09375 L 20.71875,25.8125 C 20.71875,24.318624 19.923738,23.375 18.6875,23.375 C 18.193724,23.375001 17.513738,23.575 16.4375,24.09375 L 16.25,24.1875 L 16.25,19 z M 54.875,19 L 52.21875,19.625 L 52.21875,19.96875 L 53.46875,20.375 L 53.46875,30.09375 L 52.3125,30.625 L 52.3125,31.03125 L 56.0625,31.03125 L 56.0625,30.625 L 54.875,30.09375 L 54.875,19 z M 80.625,19.4375 C 78.633725,19.437499 77.25,20.613625 77.25,22.4375 L 77.25,23.53125 L 76.09375,23.53125 L 76.09375,24.21875 L 77.21875,24.21875 L 77.21875,30.09375 L 76.09375,30.625 L 76.09375,31.03125 L 80.15625,31.03125 L 80.15625,30.625 L 78.65625,30.09375 L 78.65625,24.21875 L 80.78125,24.21875 L 80.78125,23.53125 L 78.65625,23.53125 L 78.65625,22.1875 C 78.656248,21.3375 78.812562,20.829875 79.21875,20.5 C 79.538799,20.232374 80.066237,20.03125 80.53125,20.03125 C 80.575035,20.031251 80.662488,20.03125 80.75,20.03125 L 81.15625,21 L 82.09375,21 L 82.09375,19.65625 C 81.714949,19.498875 81.221238,19.4375 80.625,19.4375 z M 3.125,19.84375 C 1.4100251,19.84375 0,21.052375 0,22.8125 C 9.9475983e-14,23.366251 0.1187625,23.72 0.375,24.15625 C 0.645,24.658874 1.0612375,24.916125 1.84375,25.46875 L 3.46875,26.5625 C 4.5212624,27.317501 4.9375,27.74125 4.9375,28.5625 C 4.9374998,29.736374 3.9625,30.34375 2.5625,30.34375 C 2.1562001,30.343749 1.845025,30.3485 1.46875,30.28125 L 0.71875,28.1875 L 0.1875,28.1875 L 0.1875,30.65625 L 0.3125,30.71875 L 1.15625,30.9375 C 1.8037125,31.105001 2.5187375,31.1875 3,31.1875 C 4.9412251,31.1875 6.4375,30.01625 6.4375,28.15625 C 6.4374999,27.518626 6.23875,27.00125 5.9375,26.53125 C 5.6662373,26.062499 5.33875,25.873625 4.375,25.1875 L 2.78125,24.0625 C 1.7275249,23.325124 1.25,22.990125 1.25,22.21875 C 1.25,21.112499 2.24625,20.59375 3.75,20.59375 C 4.0212624,20.593751 4.1087625,20.622625 4.5,20.65625 L 4.625,20.65625 L 5.34375,22.6875 L 5.90625,22.6875 L 5.90625,20.3125 L 5.65625,20.25 L 5.0625,20.09375 C 4.8662377,20.043624 4.5962625,19.98875 4.25,19.9375 C 3.8287499,19.887374 3.3812625,19.84375 3.125,19.84375 z M 42.375,23.28125 L 39.8125,23.96875 L 39.8125,24.3125 L 40.9375,24.6875 L 40.9375,30.09375 L 39.8125,30.625 L 39.8125,31.03125 L 43.84375,31.03125 L 43.84375,30.625 L 42.375,30.09375 L 42.375,24.6875 C 42.723776,24.546374 43.102525,24.46875 43.4375,24.46875 C 43.51005,24.46875 43.621287,24.46875 43.78125,24.46875 L 44.21875,25.40625 L 45.25,25.40625 L 45.25,23.6875 C 45.002511,23.529999 44.776213,23.4375 44.5,23.4375 C 44.092513,23.437499 43.428725,23.715 42.46875,24.25 L 42.375,24.28125 L 42.375,23.28125 z M 70.46875,23.28125 L 67.875,23.90625 L 67.875,24.28125 L 69.03125,24.6875 L 69.03125,34.1875 L 67.875,34.6875 L 67.875,35.09375 L 71.9375,35.09375 L 71.9375,34.6875 L 70.5,34.1875 L 70.5,31 C 70.790074,31.095125 70.9337,31.125 71.3125,31.125 C 73.637478,31.124999 75.5625,29.343875 75.5625,26.90625 C 75.562498,24.941374 74.13505,23.4375 72.59375,23.4375 C 72.158804,23.437499 71.311263,23.7625 70.46875,24.25 L 70.46875,23.28125 z M 63.96875,23.375 C 61.89005,23.374999 60.25,25.00125 60.25,27.4375 C 60.250002,29.686124 61.86245,31.28125 63.78125,31.28125 C 65.829964,31.28125 67.53125,29.53 67.53125,27.15625 C 67.531248,24.892624 65.944988,23.375 63.96875,23.375 z M 11.21875,23.4375 C 8.8787752,23.437499 7.3125,25.0625 7.3125,27.5 C 7.3125001,29.653625 8.5737375,31.1875 10.375,31.1875 C 10.91375,31.187501 11.519975,31.095 12.1875,30.875 L 12.9375,30.625 L 13.0625,30.5625 L 13,30.0625 L 12.84375,30.09375 C 12.0725,30.235126 11.871225,30.25 11.40625,30.25 C 10.461275,30.25 9.9313125,30.01875 9.4375,29.40625 C 8.9863,28.856374 8.75,28.036375 8.75,27.15625 C 8.75,25.332499 9.762475,24 11.1875,24 C 11.27375,24 11.355012,23.985125 11.5,24 L 12.15625,25.40625 L 13.03125,25.40625 L 13.03125,23.78125 C 12.333737,23.545125 11.771262,23.4375 11.21875,23.4375 z M 36,23.4375 C 35.331212,23.437499 34.558763,23.6075 33.46875,23.96875 L 33.46875,25.40625 L 34.34375,25.40625 L 34.9375,24.09375 C 35.112511,24.061251 35.183763,24.0625 35.34375,24.0625 C 36.448762,24.0625 36.78125,24.368625 36.78125,25.34375 L 36.78125,27.0625 C 35.778748,27.156374 34.924988,27.265 34.34375,27.40625 C 33.339986,27.6425 32.8125,28.275 32.8125,29.21875 C 32.812499,30.335126 33.635013,31.125 34.8125,31.125 C 35.088762,31.124999 35.311212,31.07875 35.5,31 C 35.587511,30.96875 35.807475,30.859875 36.15625,30.6875 L 36.65625,30.4375 L 36.84375,30.34375 C 36.931261,30.862376 37.157463,31.125 37.59375,31.125 L 37.65625,31.125 C 37.859988,31.108624 38.150063,31.04625 38.28125,31 L 39.3125,30.625 L 39.3125,30.28125 L 38.5,30.03125 C 38.136262,29.905001 38.09375,29.862375 38.09375,29.46875 L 38.09375,25.28125 C 38.093748,24.04 37.423763,23.4375 36,23.4375 z M 21.3125,23.53125 L 21.3125,23.90625 L 22.1875,24.34375 L 24.53125,31.1875 L 25.21875,31.1875 L 27.0625,25.90625 L 28.71875,31.1875 L 29.375,31.1875 L 31.875,24.4375 L 32.75,23.90625 L 32.75,23.53125 L 29.84375,23.53125 L 29.84375,23.90625 L 30.9375,24.4375 L 29.40625,29.0625 C 29.290025,28.606249 29.257487,28.54875 29.15625,28.25 L 27.6875,23.53125 L 27.125,23.53125 L 25.1875,29.21875 L 25.15625,28.96875 L 24.875,28.09375 L 23.65625,24.28125 L 24.71875,23.90625 L 24.71875,23.53125 L 21.3125,23.53125 z M 46.09375,23.53125 L 46.09375,25.625 L 46.59375,25.625 L 47.3125,24.21875 L 49.8125,24.21875 L 45.75,30.5 L 45.75,31.03125 L 51.53125,31.03125 L 51.53125,28.6875 L 51.0625,28.6875 L 50.28125,30.3125 L 47.5,30.3125 L 51.5625,24.03125 L 51.5625,23.53125 L 46.09375,23.53125 z M 56.5625,23.53125 L 56.5625,23.90625 L 57.53125,24.3125 L 54.96875,26.96875 L 57.96875,31.03125 L 60.1875,31.03125 L 60.1875,30.625 L 59.125,30.1875 L 56.5,26.5 L 58.53125,24.375 L 59.96875,23.90625 L 59.96875,23.53125 L 56.5625,23.53125 z M 63.8125,24.0625 C 65.092552,24.0625 65.84375,25.346125 65.84375,27.53125 C 65.84375,29.45 65.161225,30.5625 63.96875,30.5625 C 62.703712,30.5625 61.9375,29.324875 61.9375,27.21875 C 61.937501,25.22125 62.621238,24.0625 63.8125,24.0625 z M 71.875,24.375 C 73.269948,24.375001 74.1875,25.567625 74.1875,27.34375 C 74.187499,29.2775 73.167475,30.40625 71.4375,30.40625 C 71.161241,30.40625 70.805025,30.374875 70.5,30.34375 L 70.5,24.625 C 70.835015,24.467751 71.408763,24.375 71.875,24.375 z M 36.78125,27.5 L 36.78125,30.03125 C 36.722461,30.046376 36.716262,30.0625 36.6875,30.0625 C 36.411199,30.141125 36.2625,30.1875 36.21875,30.1875 C 36.043773,30.23375 35.845,30.25 35.65625,30.25 C 34.798736,30.249999 34.25,29.77 34.25,29 C 34.249999,28.355001 34.552488,27.97 35.25,27.78125 C 35.773763,27.64 36.243712,27.563875 36.78125,27.5 z " transform="translate(479.47342,4.6557803)" style="fill:#231f20;fill-opacity:1;fill-rule:nonzero;stroke:none" id="path17715"/></g></svg>